<svg xmlns="http://www.w3.org/2000/svg" xmlns:xlink="http://www.w3.org/1999/xlink" width="35.741" height="35.993" viewBox="0 0 35.741 35.993">
  <defs>
    <clipPath id="clip-path">
      <path id="Clip_2" data-name="Clip 2" d="M0,0H35.741V35.993H0Z" transform="translate(0 0)" fill="none"/>
    </clipPath>
  </defs>
  <g id="Group_3" data-name="Group 3" transform="translate(0 0)">
    <path id="Clip_2-2" data-name="Clip 2" d="M0,0H35.741V35.993H0Z" transform="translate(0 0)" fill="none"/>
    <g id="Group_3-2" data-name="Group 3" clip-path="url(#clip-path)">
      <path id="Fill_1" data-name="Fill 1" d="M.809,35.994a.647.647,0,0,1-.079,0,.634.634,0,0,1-.457-.274,2.66,2.66,0,0,1-.235-1.747c.015-.178.029-.346.033-.507l.038-1.531L.147,30.4c0-4.252.028-8.575.056-12.756S.258,9.134.258,4.878A4.629,4.629,0,0,1,1.609,1.393,5.446,5.446,0,0,1,5.367.106C9.807.036,14.294,0,18.7,0c3.936,0,7.912.029,11.82.085C33.9.133,35.639,1.8,35.678,5.032c.087,7.363.083,13.794-.011,19.659-.06,3.668-2.427,5.8-6.494,5.849l-.879.011c-3.024.036-6.15.074-9.225.074-3.149,0-5.919-.04-8.468-.122-.184-.006-.365-.009-.54-.009-2.913,0-4.887.868-6.4,2.815-.059.076-.132.174-.217.288C2.865,34.375,1.659,35.994.809,35.994ZM5.715,9.958c0,1.056.009,2.026.018,2.965.019,2.027.036,3.777-.049,5.542a2.612,2.612,0,0,0,.484,2.019,2.609,2.609,0,0,0,1.972.585c.076,0,.153,0,.232,0,1.767-.05,3.683-.073,6.028-.073,1.39,0,2.8.008,4.169.016s2.778.016,4.17.016h7.789V10.094c-1.033.8-2.039,1.572-3.011,2.313-2.187,1.668-4.253,3.243-6.2,4.924a4.859,4.859,0,0,1-3.11,1.413,4.851,4.851,0,0,1-3.119-1.408c-1.952-1.658-4.025-3.253-6.219-4.942C7.854,11.618,6.811,10.815,5.715,9.958ZM7.768,9.2l7.18,5.6.14.109,3.106,2.423,3-2.39L28.424,9.2Z" transform="translate(0 0)" fill="#fff"/>
    </g>
  </g>
</svg>
