<svg xmlns="http://www.w3.org/2000/svg" xmlns:xlink="http://www.w3.org/1999/xlink" width="34.129" height="34.128" viewBox="0 0 34.129 34.128">
  <defs>
    <clipPath id="clip-path">
      <path id="Clip_2" data-name="Clip 2" d="M0,0H34.129V34.129H0Z" transform="translate(0 0.872)" fill="none"/>
    </clipPath>
  </defs>
  <g id="Group_8" data-name="Group 8" transform="translate(0 -1)">
    <g id="Group_3" data-name="Group 3" transform="translate(0 0.128)">
      <path id="Clip_2-2" data-name="Clip 2" d="M0,0H34.129V34.129H0Z" transform="translate(0 0.872)" fill="none"/>
      <g id="Group_3-2" data-name="Group 3" clip-path="url(#clip-path)">
        <path id="Fill_1" data-name="Fill 1" d="M23.848,34.129H10.281A10.292,10.292,0,0,1,0,23.849V10.28A10.28,10.28,0,0,1,10.281,0H23.848A10.28,10.28,0,0,1,34.129,10.28V23.849A10.292,10.292,0,0,1,23.848,34.129ZM10.281,3.22a7.068,7.068,0,0,0-7.06,7.06V23.849a7.068,7.068,0,0,0,7.06,7.06H23.848a7.068,7.068,0,0,0,7.061-7.06V10.28a7.068,7.068,0,0,0-7.061-7.06Z" transform="translate(0 0.872)" fill="#fff"/>
      </g>
    </g>
    <path id="Fill_4" data-name="Fill 4" d="M2.007,0A2.007,2.007,0,1,0,4.013,2.007,2.007,2.007,0,0,0,2.007,0" transform="translate(24.035 7.283)" fill="#fff"/>
    <path id="Fill_6" data-name="Fill 6" d="M8.429,16.856a8.428,8.428,0,1,1,8.428-8.429A8.438,8.438,0,0,1,8.429,16.856Zm0-13.827a5.4,5.4,0,1,0,5.4,5.4A5.4,5.4,0,0,0,8.429,3.029Z" transform="translate(8.694 9.856)" fill="#fff"/>
  </g>
</svg>
