<svg xmlns="http://www.w3.org/2000/svg" xmlns:xlink="http://www.w3.org/1999/xlink" width="92.651" height="76.932" viewBox="0 0 92.651 76.932">
  <defs>
    <clipPath id="clip-path">
      <path id="Clip_2" data-name="Clip 2" d="M0,0H92.651V76.932H0Z" transform="translate(0 0)" fill="none"/>
    </clipPath>
  </defs>
  <g id="Group_3" data-name="Group 3" transform="translate(0 0)">
    <path id="Clip_2-2" data-name="Clip 2" d="M0,0H92.651V76.932H0Z" transform="translate(0 0)" fill="none"/>
    <g id="Group_3-2" data-name="Group 3" clip-path="url(#clip-path)">
      <path id="Fill_1" data-name="Fill 1" d="M44.7,76.932a9.968,9.968,0,0,1-2.56-.313,7.641,7.641,0,0,1-2.166-.954,4.716,4.716,0,0,1-1.606-1.785,6.911,6.911,0,0,1-.751-2.669,10.818,10.818,0,0,1,1.58-6.075c.706-1.226,1.174-2.046,1.43-2.506.266-.477.7-1.151,1.281-2A22.7,22.7,0,0,1,43.717,58.3c1.305-1.473,2.334-2.6,3.146-3.446.824-.861,1.819-1.8,2.956-2.793l.545-3.238c-2.026,1.914-4.025,2.885-5.939,2.885a6.589,6.589,0,0,1-3.91-1.281,8.2,8.2,0,0,1-2.683-3.187,10.3,10.3,0,0,1-.083-7.955c.413-1.237.836-2.395,1.293-3.541-.493-.468-.985-.945-1.462-1.417a22.607,22.607,0,0,0-2.766-2.357c-.912-.648-1.7-1.193-2.343-1.621l-.218.3a14.7,14.7,0,0,1,1.185,3.337,18.261,18.261,0,0,1,.394,3.964,15.371,15.371,0,0,1-.354,3.243,16.762,16.762,0,0,1-1.022,3.16,15.425,15.425,0,0,1-1.634,2.861,11.7,11.7,0,0,1-2.207,2.315,10.48,10.48,0,0,1-2.71,1.552,8.6,8.6,0,0,1-3.133.572,7.7,7.7,0,0,1-4.1-1.049,8.727,8.727,0,0,1-2.4-2.2c-.089.048-.179.1-.267.151s-.2.118-.3.171c-.7.359-1.446.721-2.2,1.075s-1.524.671-2.287.945a18.858,18.858,0,0,1-2.244.662,9.414,9.414,0,0,1-2.048.246,3.811,3.811,0,0,1-2.727-1.273A11.171,11.171,0,0,1,2,46.959,23.107,23.107,0,0,1,.53,41.984,32.4,32.4,0,0,1,0,36.045a43.612,43.612,0,0,1,.786-7.137l.645-3.659.142-.8,0-.016q.067-.252,1.186-4.442a49.783,49.783,0,0,1,2.387-7.151A46.644,46.644,0,0,1,7.749,7.8a27.425,27.425,0,0,1,2.944-4.078A13.686,13.686,0,0,1,13.912.993,6.666,6.666,0,0,1,17.325,0a4.086,4.086,0,0,1,2.082.481A3.6,3.6,0,0,1,20.7,1.753a5.485,5.485,0,0,1,.66,1.79,10.9,10.9,0,0,1,.191,2.036,23.66,23.66,0,0,1-.608,5.246A39.671,39.671,0,0,1,19.3,16.194c-.684,1.788-1.49,3.609-2.393,5.412s-1.863,3.625-2.831,5.383c-1,1.817-2,3.586-2.961,5.26-.982,1.708-1.905,3.411-2.744,5.061a6.034,6.034,0,0,0-.287.715c-.1.291-.2.61-.287.948s-.182.7-.273,1.085-.164.758-.22,1.126v.385a6.4,6.4,0,0,0,.15,1.387,7.658,7.658,0,0,0,.37,1.209,3.573,3.573,0,0,0,.464.852.656.656,0,0,0,.464.316,4.039,4.039,0,0,0,1.213-.22,11.344,11.344,0,0,0,1.45-.59c.5-.241,1.03-.527,1.577-.851.327-.195.642-.4.947-.59l.133-.085a18.674,18.674,0,0,1-.284-3.248,19.1,19.1,0,0,1,.9-6.2,13.549,13.549,0,0,1,2.574-4.522A11.969,11.969,0,0,1,21.358,26a13.058,13.058,0,0,1,5.448-1.1,14.43,14.43,0,0,1,4.85.8,18.454,18.454,0,0,1,4.236,2.152,18.2,18.2,0,0,1,3.678,3.392c.238.285.469.567.693.84l0,0,.269.328c.015-.029.03-.061.045-.092l.029-.061a16.917,16.917,0,0,1,3.732-4.808c2.206-1.971,4.378-2.97,6.457-2.97A2.494,2.494,0,0,1,53.115,25.6a1.69,1.69,0,0,0,.231.29c.045.036.123.11.231.221a.762.762,0,0,0,.3.206c.094.028.213.07.355.123a1.854,1.854,0,0,0,.491.111,6.185,6.185,0,0,0,.631.028l1.2-.028a1.844,1.844,0,0,1,1.689.739,6.871,6.871,0,0,1,.354.793c.217.562.244,2.448.082,5.606a17.7,17.7,0,0,1-.695,3.656,24.417,24.417,0,0,0-.8,4.841c-.126,1.756-.327,4.087-.6,6.926a17.517,17.517,0,0,0,1.689-1.14A27.32,27.32,0,0,0,63.8,41.67a18.4,18.4,0,0,1-.105-1.924,19.12,19.12,0,0,1,.9-6.2,13.575,13.575,0,0,1,2.574-4.522A11.98,11.98,0,0,1,71.266,26a13.068,13.068,0,0,1,5.45-1.1,14.435,14.435,0,0,1,4.849.8A18.464,18.464,0,0,1,85.8,27.855a18.1,18.1,0,0,1,3.678,3.392c1.146,1.375,2.214,2.685,3.174,3.9l-.518,3.842a15.819,15.819,0,0,0-1.989-2.126c-.827-.755-1.721-1.607-2.656-2.533a22.533,22.533,0,0,0-2.765-2.357c-.93-.66-1.7-1.19-2.344-1.621l-.218.3a14.615,14.615,0,0,1,1.185,3.337,18.2,18.2,0,0,1,.4,3.964,15.314,15.314,0,0,1-.355,3.243,16.822,16.822,0,0,1-1.021,3.16,15.483,15.483,0,0,1-1.635,2.861,11.694,11.694,0,0,1-2.206,2.315,10.5,10.5,0,0,1-2.711,1.552,8.6,8.6,0,0,1-3.133.572,7.7,7.7,0,0,1-4.1-1.049,8.76,8.76,0,0,1-2.792-2.738c-.052-.08-.1-.165-.146-.247-.025-.044-.048-.087-.073-.129-.316.36-.629.7-.954,1.03a38.245,38.245,0,0,1-3.323,3c-.16.106-.289.188-.382.243-1.728,1.117-3,1.952-3.786,2.481a2.7,2.7,0,0,0-1.008,1.772c-.18.846-.381,2.46-.6,4.8-.1.771-.164,1.276-.2,1.563q-.108.838-.211,1.659l0,.019-.1.761a21.756,21.756,0,0,1-.546,2.713,22.636,22.636,0,0,1-.913,2.777A14.965,14.965,0,0,1,52.2,72.834a9.809,9.809,0,0,1-1.866,2.137,8.451,8.451,0,0,1-2.48,1.416A8.918,8.918,0,0,1,44.7,76.932ZM49.87,58.627A14.812,14.812,0,0,0,46.094,63a31.686,31.686,0,0,0-2.942,6.115c-.358,1.03-.391,1.762-.1,2.174a1.177,1.177,0,0,0,1.024.414,3.769,3.769,0,0,0,1.157-.163,2.445,2.445,0,0,0,.941-.586,5.676,5.676,0,0,0,.762-.913,7.95,7.95,0,0,0,.7-1.417c.244-.617.469-1.227.667-1.813.2-.6.441-1.4.707-2.355a9.752,9.752,0,0,0,.36-1.733q.116-.944.285-2.33l.074-.6.008-.064Zm2.49-28.906c-2.1,0-3.967,1.43-5.557,4.251-1.717,3-2.67,5.061-2.832,6.129-.345,2.3-.18,4.057.49,5.231a1.953,1.953,0,0,0,1.716,1.144c1.229,0,2.265-1,3.078-2.97a14.236,14.236,0,0,0,1.063-4.712Zm22.966.409a3.079,3.079,0,0,0-2.126.953,8.958,8.958,0,0,0-1.77,2.438,14.807,14.807,0,0,0-1.2,3.282,17.364,17.364,0,0,0-.436,4.059,10.234,10.234,0,0,0,.218,2.152,5.584,5.584,0,0,0,.681,1.758,3.415,3.415,0,0,0,3.051,1.649,2.5,2.5,0,0,0,1.8-.941,8.926,8.926,0,0,0,1.525-2.371,15.584,15.584,0,0,0,1.049-3.459,19.283,19.283,0,0,0,.4-3.61,13.37,13.37,0,0,0-.192-2.329,7.224,7.224,0,0,0-.571-1.867,3.466,3.466,0,0,0-.981-1.253A2.3,2.3,0,0,0,75.326,30.13Zm-49.909,0a3.081,3.081,0,0,0-2.125.953,8.965,8.965,0,0,0-1.77,2.438,14.8,14.8,0,0,0-1.2,3.282,17.363,17.363,0,0,0-.436,4.059,10.177,10.177,0,0,0,.218,2.152,5.542,5.542,0,0,0,.681,1.758,3.415,3.415,0,0,0,3.051,1.649,2.5,2.5,0,0,0,1.8-.941,8.932,8.932,0,0,0,1.526-2.371,15.579,15.579,0,0,0,1.048-3.459,19.284,19.284,0,0,0,.4-3.61,13.46,13.46,0,0,0-.191-2.329,7.264,7.264,0,0,0-.572-1.867,3.478,3.478,0,0,0-.981-1.253A2.306,2.306,0,0,0,25.417,30.13ZM15.163,6.32a2.323,2.323,0,0,0-1.615,1.035,14.13,14.13,0,0,0-1.729,2.8A41.982,41.982,0,0,0,9.754,15.9q-.867,2.877-1.109,3.674l-.092.306c0,.005-.251,1.268-.733,3.692a45.856,45.856,0,0,0-.873,6.484c.815-1.457,1.694-3.12,2.61-4.945s1.793-3.725,2.61-5.659,1.535-3.89,2.132-5.81a27.384,27.384,0,0,0,1.148-5.4c0-.521-.013-.978-.039-1.36S15.3,6.32,15.163,6.32Z" transform="translate(0 0)" fill="#fff"/>
    </g>
  </g>
</svg>
